<?xml version="1.0" standalone="no"?>
<!DOCTYPE svg PUBLIC "-//W3C//DTD SVG 20010904//EN"
 "http://www.w3.org/TR/2001/REC-SVG-20010904/DTD/svg10.dtd">
<svg version="1.0" xmlns="http://www.w3.org/2000/svg"
 width="286.000000pt" height="274.000000pt" viewBox="0 0 286.000000 274.000000"
 preserveAspectRatio="xMidYMid meet">
<metadata>
Created by potrace 1.16, written by Peter Selinger 2001-2019
</metadata>
<g transform="translate(0.000000,274.000000) scale(0.100000,-0.100000)"
fill="#000000" stroke="none">
<path d="M1585 2399 c-4 -6 3 -21 16 -35 33 -36 17 -39 -22 -4 -36 32 -58 37
-77 18 -9 -9 -2 -22 28 -54 l39 -43 -14 -47 c-8 -26 -21 -52 -30 -56 -8 -5
-15 -19 -15 -31 0 -44 -115 -200 -231 -313 -62 -60 -133 -129 -158 -154 -45
-44 -105 -127 -186 -257 -22 -35 -62 -87 -88 -116 -25 -28 -45 -52 -44 -53 1
-1 12 -5 24 -8 17 -6 32 2 65 32 24 22 49 37 56 35 6 -3 12 2 12 11 0 9 5 16
10 16 10 0 77 60 174 155 22 23 58 53 78 69 l37 28 32 -23 c29 -20 38 -21 128
-15 54 3 120 10 147 15 28 6 108 8 179 6 l129 -4 75 -77 c107 -109 168 -151
268 -189 111 -41 135 -46 153 -35 12 8 7 18 -30 55 -24 25 -40 45 -34 45 6 0
39 -11 74 -25 35 -14 66 -25 68 -25 3 0 -26 22 -64 49 -67 46 -235 211 -344
336 -54 62 -148 197 -190 273 -13 23 -57 69 -97 102 -63 52 -72 63 -63 80 5
10 10 46 10 80 0 67 -26 122 -74 153 -30 20 -33 20 -41 6z m69 -502 c20 -45
50 -103 66 -127 17 -25 30 -48 30 -51 0 -4 -44 -9 -97 -12 -54 -4 -134 -11
-178 -16 -44 -5 -82 -7 -84 -5 -2 2 21 28 52 59 31 30 64 69 73 87 24 48 88
148 95 148 3 0 22 -37 43 -83z"/>
<path d="M501 2374 l24 -27 -22 7 c-70 19 -69 19 -55 5 17 -19 15 -28 -7 -22
-27 7 -33 -22 -9 -44 11 -10 36 -41 55 -70 34 -52 34 -52 24 -120 -38 -254
-51 -354 -60 -473 -28 -344 -33 -418 -41 -606 l-8 -201 -43 -81 -43 -82 44
-92 c44 -93 104 -168 134 -168 9 0 16 -4 16 -10 0 -17 56 -4 78 18 30 30 4 34
312 -39 92 -21 113 -22 685 -24 592 -2 726 -6 778 -20 34 -9 73 9 80 36 4 13
14 19 36 19 21 0 31 5 31 15 0 9 12 18 30 21 20 4 35 16 45 36 14 30 14 31
-23 74 -29 32 -41 57 -48 98 -6 31 -7 61 -2 68 13 22 9 127 -8 166 l-15 37
-15 -28 c-8 -15 -19 -25 -24 -22 -4 3 -19 -23 -32 -58 -14 -34 -49 -96 -78
-136 l-54 -74 -190 9 c-105 4 -389 9 -631 9 -456 1 -513 4 -680 36 -55 10
-101 19 -101 19 -11 0 -10 39 1 77 7 26 13 62 13 78 0 61 10 203 21 290 7 50
13 149 15 222 2 84 7 137 15 147 6 8 16 65 21 126 10 123 25 238 42 312 5 27
9 76 7 110 -1 35 1 70 5 79 4 10 -6 38 -29 75 -40 66 -51 86 -63 111 -11 21
-174 107 -221 116 l-35 7 25 -26z"/>
<path d="M1750 1444 c-66 -15 -300 -22 -352 -10 -49 11 -51 -8 -3 -28 45 -19
44 -26 -2 -21 -49 4 -103 -4 -103 -17 0 -17 61 -68 112 -94 41 -21 57 -24 99
-18 l50 7 -6 -154 c-4 -85 -8 -159 -10 -165 -5 -18 -324 -59 -430 -56 l-50 1
33 -20 c49 -32 40 -42 -33 -37 -40 3 -68 1 -72 -5 -10 -16 58 -72 110 -92 46
-17 47 -17 64 4 16 19 36 23 173 36 218 19 543 12 609 -15 53 -20 89 -17 109
11 8 12 32 20 77 24 36 4 65 9 65 11 0 12 -52 84 -60 84 -6 0 -33 23 -60 51
-38 39 -54 49 -67 43 -10 -4 -55 -9 -100 -12 -75 -4 -83 -6 -83 -24 0 -19 -4
-20 -52 -14 -29 4 -57 12 -63 17 -5 5 -10 47 -10 92 0 70 4 90 29 140 19 39
34 56 45 55 12 -2 15 4 13 25 -2 23 1 27 21 27 28 0 77 35 77 55 0 8 23 24 50
37 28 13 49 27 47 33 -11 34 -138 50 -227 29z"/>
</g>
</svg>
